<svg xmlns="http://www.w3.org/2000/svg" viewBox="0 0 572.91 231.49"><defs><style>.cls-1{fill:#006837;}</style></defs><g id="Layer_2" data-name="Layer 2"><g id="Layer_1-2" data-name="Layer 1"><polygon class="cls-1" points="112.63 0 112.63 44.88 80.87 44.88 80.87 159.8 31.21 159.8 31.21 44.88 0 44.88 0 0 112.63 0"/><path class="cls-1" d="M189.59,78a72.79,72.79,0,0,0-.67-10.77A19.09,19.09,0,0,0,186.48,60a10.11,10.11,0,0,0-5-4.11,23.09,23.09,0,0,0-8.39-1.28,17.68,17.68,0,0,0-7.91,1.52,11.27,11.27,0,0,0-4.7,4.31,18.59,18.59,0,0,0-2.3,6.7,55.2,55.2,0,0,0-.62,8.71,56.42,56.42,0,0,0,.62,8.72,23.75,23.75,0,0,0,1.58,6.07,14.28,14.28,0,0,0,5.52,6.46,15.12,15.12,0,0,0,8.38,2.44q8.16,0,12-5.38T189.59,78m-15-63.53q7.58,0,14.2.54a80.33,80.33,0,0,1,12.32,1.91,48.74,48.74,0,0,1,10.64,3.86A40.44,40.44,0,0,1,221,27.26a43.78,43.78,0,0,1,11.84,19q3.6,11.27,3.6,26.92a90.15,90.15,0,0,1-3.64,26.73q-3.66,11.75-9.88,18.79a38.44,38.44,0,0,1-9.11,7.83,48.46,48.46,0,0,1-11.31,5,75.13,75.13,0,0,1-13.67,2.74,144.36,144.36,0,0,1-16.15.83q-15.63,0-27.23-3.67a46.5,46.5,0,0,1-19.28-11.35,48,48,0,0,1-11.5-19.58q-3.84-11.9-3.84-28.34,0-15.75,3.79-26.77A41.09,41.09,0,0,1,126.31,27.5q7.86-6.88,19.9-10a115.71,115.71,0,0,1,28.42-3.08"/><path class="cls-1" d="M295.31,0V21.55h32.6V58.9h-32.6V85.72q0,5.93.27,9.55a11.31,11.31,0,0,0,1.62,5.6,6.62,6.62,0,0,0,4.15,2.63,36.18,36.18,0,0,0,7.86.66,53.35,53.35,0,0,0,7.9-.61,50.61,50.61,0,0,0,7.45-1.64l-.9,27q-4.34,1.6-14.76,3a204.32,204.32,0,0,1-26.51,1.41q-16.89,0-25-7.2t-8.13-22V58.9H235.61V35.76a128.64,128.64,0,0,0,10.75-9.37q5-4.84,9.26-9.55c2.85-3.13,5.52-6.15,8-9s4.72-5.49,6.77-7.81Z"/><path class="cls-1" d="M408.24,62.81V60.72q0-6.73-4.24-10.15t-12.33-3.42a22.24,22.24,0,0,0-7.22,1,11.12,11.12,0,0,0-4.7,2.94A12.17,12.17,0,0,0,377.08,56,29.41,29.41,0,0,0,376,62.81Zm29.08,62.08q-1.74.66-6.58,1.94t-11.55,2.57q-6.72,1.28-14.73,2.18a143.05,143.05,0,0,1-16,.9q-15.46,0-26.33-3.46a39.71,39.71,0,0,1-17.67-10.92A45.07,45.07,0,0,1,334.51,99q-3.13-11.62-3.13-27.86t3.4-26.86a36.56,36.56,0,0,1,10.73-16.94q7.32-6.32,18.69-8.82A127.75,127.75,0,0,1,391.49,16q15.38,0,25.72,2.89t16.67,9.45q6.3,6.54,9,17.13t2.72,26q0,3.51-.18,7.55c-.13,2.69-.35,5.45-.65,8.3h-67.1a24,24,0,0,0,2.53,8.07A11,11,0,0,0,385,99.83a22.47,22.47,0,0,0,8,1.9q4.94.38,12.29.38a88.25,88.25,0,0,0,16.76-1.81q9.28-1.8,20.43-4.36Z"/><path class="cls-1" d="M493.67,22.26V46.85a38.62,38.62,0,0,1,3.19-11.26,26.17,26.17,0,0,1,5.78-8.12,23.4,23.4,0,0,1,8-4.88,27.9,27.9,0,0,1,9.6-1.64,60.78,60.78,0,0,1,6.71.38c2.26.25,4.42.56,6.52.93V72a39.32,39.32,0,0,0-5.59-.61q-3.14-.14-5.88-.14a33,33,0,0,0-6.17.66,33.61,33.61,0,0,0-6.46,1.88,20.74,20.74,0,0,0-5.59,3.14,12.66,12.66,0,0,0-3.52,4.55A22.76,22.76,0,0,0,498.43,88a65.51,65.51,0,0,0-.54,9.06v33.78H448.42V22.26Z"/><path class="cls-1" d="M555.22,35.63a3.53,3.53,0,0,0,1.88-.38,1.37,1.37,0,0,0,.56-1.22,1.34,1.34,0,0,0-.54-1.22,4.34,4.34,0,0,0-2.09-.34h-.4v3.16Zm-6.67-6.8h7.36c.48,0,.9,0,1.27,0l1,0a6.24,6.24,0,0,1,4,1.47,4.45,4.45,0,0,1,1.54,3.5,3.77,3.77,0,0,1-1,2.79,4,4,0,0,1-2.84,1.06l6.41,8h-7.54l-4.26-6.66v6.66h-6Zm-6.72,8.45a14.91,14.91,0,0,0,1.12,5.8A15.14,15.14,0,0,0,546,47.76a14.38,14.38,0,0,0,4.57,3.12A13.92,13.92,0,0,0,556.26,52,14.52,14.52,0,0,0,562,50.9a14.36,14.36,0,0,0,4.64-3.1,14.67,14.67,0,0,0,3.11-4.63,14.7,14.7,0,0,0,0-11.35,14.65,14.65,0,0,0-3.11-4.6,15,15,0,0,0-4.63-3.1,14.61,14.61,0,0,0-11.29,0A14.59,14.59,0,0,0,543,31.75a13.62,13.62,0,0,0-1.14,5.53m-2.07.44a17.06,17.06,0,0,1,1.27-6.6,16.26,16.26,0,0,1,8.7-8.87,15.93,15.93,0,0,1,6.46-1.3,16.41,16.41,0,0,1,6.53,1.3A16.88,16.88,0,0,1,568,25.78,16.51,16.51,0,0,1,571.61,31a16.15,16.15,0,0,1,1.3,6.44,16.37,16.37,0,0,1-1.3,6.5,17,17,0,0,1-3.54,5.27,16.39,16.39,0,0,1-5.26,3.55,16.18,16.18,0,0,1-6.49,1.3,16.49,16.49,0,0,1-6.47-1.28,16.79,16.79,0,0,1-5.25-3.49,16.26,16.26,0,0,1-3.54-5.2,16,16,0,0,1-1.3-6.4"/><path class="cls-1" d="M30.63,189.48H52.35c7.86,0,11.88,5,11.88,10.52,0,5.19-3.22,8.66-7.12,9.46,4.4.68,7.92,4.95,7.92,10.15,0,6.19-4.14,11.14-12,11.14H30.63Zm19.8,16.58c3,0,4.83-1.92,4.83-4.58A4.48,4.48,0,0,0,50.43,197h-11v9.09Zm.31,17.2c3.34,0,5.32-1.92,5.32-4.89,0-2.59-1.86-4.82-5.32-4.82H39.42v9.71Z"/><path class="cls-1" d="M91.64,227a14,14,0,0,1-10.52,4.52c-6.56,0-9.65-3.59-9.65-9.4V200.86h7.86V219c0,4.15,2.16,5.51,5.5,5.51a8.81,8.81,0,0,0,6.81-3.4V200.86H99.5v29.89H91.64Z"/><path class="cls-1" d="M106.49,191.77a4.7,4.7,0,1,1,4.7,4.7A4.73,4.73,0,0,1,106.49,191.77Zm.8,9.09h7.86v29.89h-7.86Z"/><path class="cls-1" d="M123,189.48h7.85v41.27H123Z"/><path class="cls-1" d="M140.15,223.32V207.73h-5v-6.87h5V192.7h7.92v8.16h6.06v6.87h-6.06v13.49c0,1.86,1,3.28,2.72,3.28a4.23,4.23,0,0,0,2.72-.87l1.67,5.94c-1.17,1.05-3.28,1.92-6.56,1.92C143.12,231.49,140.15,228.65,140.15,223.32Z"/><path class="cls-1" d="M177.09,207.73h-5v-6.87h5v-1.61c0-6.49,4.2-10.39,10.08-10.39a12.58,12.58,0,0,1,5.69,1.24l-1.6,5.57a4.79,4.79,0,0,0-2.54-.62c-2.23,0-3.71,1.48-3.71,4.33v1.48h6.06v6.87H185v23h-7.92Z"/><path class="cls-1" d="M193.67,215.78c0-8.48,5.94-15.66,15.78-15.66s15.84,7.18,15.84,15.66-5.94,15.71-15.84,15.71S193.67,224.31,193.67,215.78Zm23.45,0c0-4.65-2.79-8.67-7.67-8.67s-7.61,4-7.61,8.67,2.72,8.72,7.61,8.72S217.12,220.48,217.12,215.78Z"/><path class="cls-1" d="M231.1,200.86H239V205a12.79,12.79,0,0,1,9.53-4.77v7.68a10,10,0,0,0-2.17-.19c-2.6,0-6.06,1.42-7.36,3.34v19.74H231.1Z"/><path class="cls-1" d="M269.4,189.48h29.21V197H278.19v9h20v7.55h-20v9.59h20.42v7.61H269.4Z"/><path class="cls-1" d="M317,220.66l-6.87,10.09h-8.72L312,215.4l-10-14.54h8.78l6.19,9.22,6.13-9.22h8.78l-10,14.54,10.7,15.35h-8.78Z"/><path class="cls-1" d="M338,223.32V207.73h-4.95v-6.87H338V192.7h7.92v8.16H352v6.87h-6.06v13.49c0,1.86,1,3.28,2.72,3.28a4.23,4.23,0,0,0,2.72-.87l1.67,5.94c-1.17,1.05-3.27,1.92-6.55,1.92C341,231.49,338,228.65,338,223.32Z"/><path class="cls-1" d="M357.39,200.86h7.85V205a12.81,12.81,0,0,1,9.53-4.77v7.68a10,10,0,0,0-2.16-.19c-2.6,0-6.07,1.42-7.37,3.34v19.74h-7.85Z"/><path class="cls-1" d="M393.21,200.12c8.91,0,15,6.68,15,16.46v1.73H386c.5,3.78,3.53,6.93,8.6,6.93a12.19,12.19,0,0,0,8-3l3.47,5.08c-3,2.78-7.67,4.14-12.32,4.14-9.09,0-16-6.12-16-15.71C377.74,207.11,384.11,200.12,393.21,200.12ZM385.85,213h14.72a6.91,6.91,0,0,0-7.36-6.62A7.18,7.18,0,0,0,385.85,213Z"/><path class="cls-1" d="M450.94,211.88c0-2.79-1.24-4.77-4.46-4.77a7.92,7.92,0,0,0-6.18,3.47v20.17h-7.92V211.88c0-2.79-1.24-4.77-4.46-4.77a8,8,0,0,0-6.19,3.53v20.11h-7.85V200.86h7.85v3.9a13.1,13.1,0,0,1,9.78-4.64c4.39,0,7.18,2,8.29,5.45a12.66,12.66,0,0,1,10.27-5.45c5.51,0,8.79,2.91,8.79,9v21.6h-7.92Z"/><path class="cls-1" d="M480.14,200.12c8.91,0,15,6.68,15,16.46v1.73H472.9c.5,3.78,3.53,6.93,8.6,6.93a12.22,12.22,0,0,0,8-3l3.46,5.08c-3,2.78-7.67,4.14-12.31,4.14-9.1,0-16-6.12-16-15.71C464.67,207.11,471.05,200.12,480.14,200.12ZM472.78,213h14.73a6.93,6.93,0,0,0-7.37-6.62A7.18,7.18,0,0,0,472.78,213Z"/><path class="cls-1" d="M501.61,221.34a17.07,17.07,0,0,0,10.33,4.09c3.41,0,5-1.18,5-3,0-2.11-2.6-2.85-6-3.53-5.14-1-11.76-2.23-11.76-9.34,0-5,4.39-9.41,12.25-9.41a18.76,18.76,0,0,1,12,4.08l-3.09,5.39a12.6,12.6,0,0,0-8.85-3.47c-2.84,0-4.7,1-4.7,2.79s2.35,2.53,5.69,3.21c5.14,1,12,2.36,12,9.78,0,5.51-4.65,9.59-12.94,9.59-5.19,0-10.21-1.73-13.36-4.64Z"/><path class="cls-1" d="M549.33,199.52a10.1,10.1,0,1,1-10.07-9.83A9.88,9.88,0,0,1,549.33,199.52Zm-17.68,0a7.61,7.61,0,0,0,7.67,7.85,7.52,7.52,0,0,0,7.49-7.79,7.59,7.59,0,1,0-15.16-.06Zm6.05,5.16h-2.28v-9.83a19.93,19.93,0,0,1,3.78-.3,6.07,6.07,0,0,1,3.41.72,2.71,2.71,0,0,1,1,2.15,2.52,2.52,0,0,1-2,2.28v.12a2.91,2.91,0,0,1,1.79,2.4,7.52,7.52,0,0,0,.72,2.46H541.6a8.43,8.43,0,0,1-.78-2.4c-.18-1.08-.78-1.56-2-1.56H537.7Zm.06-5.58h1.08c1.26,0,2.28-.42,2.28-1.44s-.66-1.5-2.1-1.5a5.31,5.31,0,0,0-1.26.13Z"/></g></g></svg>